<svg width="25" height="25" viewBox="0 0 25 25" fill="none" xmlns="http://www.w3.org/2000/svg">
<path d="M6.09367 17.8125C6.97909 17.1354 7.96867 16.6015 9.06242 16.2109C10.1562 15.8203 11.302 15.625 12.4999 15.625C13.6978 15.625 14.8437 15.8203 15.9374 16.2109C17.0312 16.6015 18.0208 17.1354 18.9062 17.8125C19.5138 17.1007 19.9869 16.2934 20.3254 15.3906C20.664 14.4878 20.8333 13.5243 20.8333 12.5C20.8333 10.191 20.0216 8.22481 18.3984 6.60154C16.7751 4.97828 14.8089 4.16665 12.4999 4.16665C10.1909 4.16665 8.22474 4.97828 6.60148 6.60154C4.97822 8.22481 4.16659 10.191 4.16659 12.5C4.16659 13.5243 4.33586 14.4878 4.6744 15.3906C5.01294 16.2934 5.48603 17.1007 6.09367 17.8125ZM12.4999 13.5416C11.4756 13.5416 10.6119 13.1901 9.90877 12.487C9.20565 11.7838 8.85408 10.9201 8.85408 9.89581C8.85408 8.87151 9.20565 8.00779 9.90877 7.30467C10.6119 6.60154 11.4756 6.24998 12.4999 6.24998C13.5242 6.24998 14.3879 6.60154 15.0911 7.30467C15.7942 8.00779 16.1458 8.87151 16.1458 9.89581C16.1458 10.9201 15.7942 11.7838 15.0911 12.487C14.3879 13.1901 13.5242 13.5416 12.4999 13.5416ZM12.4999 22.9166C11.0589 22.9166 9.70478 22.6432 8.43742 22.0963C7.17006 21.5495 6.06763 20.8073 5.13013 19.8698C4.19263 18.9323 3.45044 17.8298 2.90356 16.5625C2.35669 15.2951 2.08325 13.941 2.08325 12.5C2.08325 11.059 2.35669 9.70484 2.90356 8.43748C3.45044 7.17012 4.19263 6.06769 5.13013 5.13019C6.06763 4.19269 7.17006 3.4505 8.43742 2.90363C9.70478 2.35675 11.0589 2.08331 12.4999 2.08331C13.9409 2.08331 15.2951 2.35675 16.5624 2.90363C17.8298 3.4505 18.9322 4.19269 19.8697 5.13019C20.8072 6.06769 21.5494 7.17012 22.0963 8.43748C22.6431 9.70484 22.9166 11.059 22.9166 12.5C22.9166 13.941 22.6431 15.2951 22.0963 16.5625C21.5494 17.8298 20.8072 18.9323 19.8697 19.8698C18.9322 20.8073 17.8298 21.5495 16.5624 22.0963C15.2951 22.6432 13.9409 22.9166 12.4999 22.9166Z" fill="#FEF7FF"/>
</svg>
