<svg width="25" height="25" viewBox="0 0 25 25" fill="none" xmlns="http://www.w3.org/2000/svg">
<g clip-path="url(#clip0_206_498)">
<path d="M16.6667 0H8.33333C6.95251 0.00165402 5.62871 0.550919 4.65231 1.52731C3.67592 2.50371 3.12665 3.82751 3.125 5.20833V23.9583C3.12515 24.1478 3.17697 24.3336 3.27488 24.4958C3.37279 24.658 3.51308 24.7905 3.68066 24.8789C3.84824 24.9673 4.03676 25.0083 4.22592 24.9975C4.41507 24.9867 4.59771 24.9246 4.75417 24.8177L6.94792 23.3188L9.14167 24.8177C9.31499 24.9364 9.52014 24.9999 9.73021 24.9999C9.94027 24.9999 10.1454 24.9364 10.3187 24.8177L12.5062 23.3188L14.6937 24.8177C14.8672 24.9366 15.0725 25.0003 15.2828 25.0003C15.4931 25.0003 15.6984 24.9366 15.8719 24.8177L18.0594 23.3198L20.2469 24.8167C20.4032 24.9232 20.5857 24.9851 20.7746 24.9958C20.9635 25.0065 21.1517 24.9655 21.3191 24.8772C21.4865 24.789 21.6267 24.6568 21.7246 24.4949C21.8225 24.3331 21.8745 24.1475 21.875 23.9583V5.20833C21.8733 3.82751 21.3241 2.50371 20.3477 1.52731C19.3713 0.550919 18.0475 0.00165402 16.6667 0ZM19.7917 21.9792L18.6458 21.1958C18.4723 21.0767 18.2667 21.0129 18.0562 21.0129C17.8458 21.0129 17.6402 21.0767 17.4667 21.1958L15.2792 22.6948L13.0917 21.1958C12.9182 21.0769 12.7129 21.0133 12.5026 21.0133C12.2923 21.0133 12.087 21.0769 11.9135 21.1958L9.72604 22.6948L7.53854 21.1958C7.36533 21.0774 7.16037 21.014 6.95052 21.014C6.74067 21.014 6.53572 21.0774 6.3625 21.1958L5.20833 21.9792V5.20833C5.20833 4.37953 5.53757 3.58468 6.12362 2.99863C6.70968 2.41257 7.50453 2.08333 8.33333 2.08333H16.6667C17.4955 2.08333 18.2903 2.41257 18.8764 2.99863C19.4624 3.58468 19.7917 4.37953 19.7917 5.20833V21.9792Z" fill="white"/>
<path d="M16.6666 8.33331H8.33329C7.758 8.33331 7.29163 8.79968 7.29163 9.37498C7.29163 9.95028 7.758 10.4166 8.33329 10.4166H16.6666C17.2419 10.4166 17.7083 9.95028 17.7083 9.37498C17.7083 8.79968 17.2419 8.33331 16.6666 8.33331Z" fill="white"/>
<path d="M14.5833 12.5H8.33329C7.758 12.5 7.29163 12.9664 7.29163 13.5417C7.29163 14.117 7.758 14.5833 8.33329 14.5833H14.5833C15.1586 14.5833 15.625 14.117 15.625 13.5417C15.625 12.9664 15.1586 12.5 14.5833 12.5Z" fill="white"/>
</g>
<defs>
<clipPath id="clip0_206_498">
<rect width="25" height="25" fill="white"/>
</clipPath>
</defs>
</svg>
